<?xml version="1.0" encoding="UTF-8" standalone="no"?>
<!-- Created with Inkscape (http://www.inkscape.org/) -->

<svg
   xmlns:dc="http://purl.org/dc/elements/1.1/"
   xmlns:cc="http://creativecommons.org/ns#"
   xmlns:rdf="http://www.w3.org/1999/02/22-rdf-syntax-ns#"
   xmlns:svg="http://www.w3.org/2000/svg"
   xmlns="http://www.w3.org/2000/svg"
   xmlns:sodipodi="http://sodipodi.sourceforge.net/DTD/sodipodi-0.dtd"
   xmlns:inkscape="http://www.inkscape.org/namespaces/inkscape"
   width="100%"
   height="100%"
   viewBox="0 0 2450 1000"
   id="svg2"
   version="1.1">
  <title
     id="title">NUnit Logo</title>
    <rect
       style="fill:#005b0c;fill-opacity:1;stroke:none;stroke-width:50;stroke-miterlimit:4;stroke-dasharray:none;stroke-opacity:1"
       id="rect4144"
       width="2450"
       height="1000"
       x="0"
       y="0" />
    <circle
       style="fill:#005b0c"
       id="green_circle"
       cx="500"
       cy="500"
       inkscape:label="#green_circle"
       r="480" />
    <circle
       style="fill:none;stroke:#ffffff;stroke-width:50;stroke-miterlimit:4;stroke-dasharray:none;stroke-opacity:1"
       id="ring"
       cx="500"
       cy="500"
       r="385" />
    <path
       inkscape:connector-curvature="0"
       id="letter_n"
       style="font-style:normal;font-variant:normal;font-weight:normal;font-stretch:normal;font-size:medium;line-height:125%;font-family:'Arial Rounded MT Bold';-inkscape-font-specification:'Arial Rounded MT Bold, ';text-align:center;letter-spacing:0px;word-spacing:0px;text-anchor:middle;fill:#ffffff;fill-opacity:1;stroke:none;stroke-width:1px;stroke-linecap:butt;stroke-linejoin:miter;stroke-opacity:1"
       d="m 417.47137,355.35112 0,11.81538 q 25.77901,-34.01398 56.21257,-49.76782 30.7916,-16.11188 70.53424,-16.11188 38.66852,0 69.10208,16.82796 30.43356,16.82797 45.47132,47.61957 9.66713,17.90209 12.53146,38.66852 2.86434,20.76643 2.86434,52.99019 l 0,181.88527 q 0,29.35943 -13.60559,44.39719 -13.24755,15.03775 -34.73006,15.03775 -21.84056,0 -35.44615,-15.3958 -13.60559,-15.3958 -13.60559,-44.03914 l 0,-162.90905 q 0,-48.33565 -13.60559,-73.75662 -13.24755,-25.77901 -53.34823,-25.77901 -26.13706,0 -47.61957,15.75384 -21.48251,15.3958 -31.50768,42.60698 -7.16084,21.84055 -7.16084,81.63354 l 0,122.45032 q 0,29.71747 -13.96363,44.75523 -13.60559,14.67971 -35.44615,14.67971 -21.12447,0 -34.73006,-15.3958 -13.60559,-15.3958 -13.60559,-44.03914 l 0,-282.49503 q 0,-27.92726 12.17343,-41.53285 12.17342,-13.96363 33.29789,-13.96363 12.88951,0 23.27272,6.08671 10.38321,6.08671 16.46992,18.26013 6.44476,12.17343 6.44476,29.71748 z" />
      <path
         d="m 1255.0824,643.28132 0,-12.59816 q -17.6374,22.31674 -37.0746,37.43453 -19.4371,15.11779 -42.4738,22.31674 -23.0366,7.5589 -52.5523,7.5589 -35.6348,0 -64.0707,-14.75785 -28.0759,-14.75784 -43.5536,-40.67406 -18.35731,-31.31542 -18.35731,-89.98686 l 0,-194.73156 q 0,-29.51569 13.31801,-43.91359 13.3181,-14.75785 35.2749,-14.75785 22.3167,0 35.9947,14.75785 13.678,14.75784 13.678,43.91359 l 0,157.29703 q 0,34.19501 5.7592,57.59159 5.7592,23.03664 20.517,36.35469 15.1178,12.95811 40.6741,12.95811 24.8363,0 46.7931,-14.75785 21.9568,-14.75784 32.0354,-38.51437 8.2787,-20.87695 8.2787,-91.42665 l 0,-119.50255 q 0,-29.15575 13.678,-43.91359 13.678,-14.75785 35.6348,-14.75785 21.9568,0 35.2749,14.75785 13.318,14.3979 13.318,43.91359 l 0,284.71842 q 0,28.0759 -12.9581,42.11385 -12.5981,14.03795 -32.7552,14.03795 -20.157,0 -33.4751,-14.39789 -12.9581,-14.75785 -12.9581,-41.03401 z"
         style="font-style:normal;font-variant:normal;font-weight:normal;font-stretch:normal;font-family:'Arial Rounded MT Bold';-inkscape-font-specification:'Arial Rounded MT Bold, ';text-align:start;text-anchor:start;fill:#ffffff;fill-opacity:1"
         id="path4146" />
      <path
         d="m 1534.0417,353.52363 0,11.87826 q 25.9162,-34.195 56.5117,-50.03269 30.9555,-16.19764 70.9097,-16.19764 38.8743,0 69.4698,16.91753 30.5956,16.91753 45.7134,47.87301 9.7185,17.99737 12.5981,38.87433 2.8796,20.87695 2.8796,53.27222 l 0,182.8533 q 0,29.51569 -13.678,44.63348 -13.3181,15.11779 -34.9149,15.11779 -21.9568,0 -35.6348,-15.47774 -13.678,-15.47774 -13.678,-44.27353 l 0,-163.77609 q 0,-48.5929 -13.678,-74.14917 -13.3181,-25.91622 -53.6322,-25.91622 -26.2761,0 -47.873,15.83769 -21.5968,15.47774 -31.6754,42.83375 -7.1989,21.95679 -7.1989,82.06801 l 0,123.10203 q 0,29.87564 -14.038,44.99343 -13.678,14.75784 -35.6348,14.75784 -21.2369,0 -34.9149,-15.47774 -13.678,-15.47774 -13.678,-44.27353 l 0,-283.99853 q 0,-28.0759 12.2382,-41.75391 12.2383,-14.03795 33.4752,-14.03795 12.9581,0 23.3965,6.11911 10.4385,6.11911 16.5576,18.35732 6.4791,12.23821 6.4791,29.87564 z"
         style="font-style:normal;font-variant:normal;font-weight:normal;font-stretch:normal;font-family:'Arial Rounded MT Bold';-inkscape-font-specification:'Arial Rounded MT Bold, ';text-align:start;text-anchor:start;fill:#ffffff;fill-opacity:1"
         id="path4148" />
      <path
         d="m 1987.9354,354.96342 0,283.99853 q 0,29.51569 -14.0379,44.63348 -14.038,15.11779 -35.6348,15.11779 -21.5969,0 -35.2749,-15.47774 -13.318,-15.47774 -13.318,-44.27353 l 0,-281.11895 q 0,-29.15575 13.318,-43.91359 13.678,-14.75785 35.2749,-14.75785 21.5968,0 35.6348,14.75785 14.0379,14.75784 14.0379,41.03401 z m -48.5929,-101.50518 q -20.517,0 -35.2748,-12.59816 -14.3979,-12.59816 -14.3979,-35.6348 0,-20.87695 14.7578,-34.19501 15.1178,-13.678 34.9149,-13.678 19.0772,0 33.8351,12.23821 14.7578,12.23822 14.7578,35.6348 0,22.67669 -14.3979,35.6348 -14.3979,12.59816 -34.195,12.59816 z"
         style="font-style:normal;font-variant:normal;font-weight:normal;font-stretch:normal;font-family:'Arial Rounded MT Bold';-inkscape-font-specification:'Arial Rounded MT Bold, ';text-align:start;text-anchor:start;fill:#ffffff;fill-opacity:1"
         id="path4150" />
      <path
         d="m 2095.1998,307.8103 10.7984,0 0,-59.03138 q 0,-23.75653 1.0798,-37.07459 1.4398,-13.678 7.199,-23.39658 5.7591,-10.07853 16.5576,-16.19763 10.7984,-6.47906 24.1165,-6.47906 18.7172,0 33.835,14.03795 10.0785,9.35864 12.5982,23.03664 2.8795,13.31805 2.8795,38.15443 l 0,66.95022 35.9948,0 q 20.8769,0 31.6754,10.07853 11.1583,9.71858 11.1583,25.19632 0,19.79711 -15.8376,27.71595 -15.4778,7.91885 -44.6335,7.91885 l -18.3574,0 0,180.69361 q 0,23.03664 1.4398,35.6348 1.7998,12.23821 8.6388,20.15706 7.1989,7.55889 23.0366,7.55889 8.6388,0 23.3966,-2.87958 14.7578,-3.23952 23.0366,-3.23952 11.8783,0 21.2369,9.71858 9.7186,9.35863 9.7186,23.39658 0,23.75653 -25.9162,36.35469 -25.9162,12.59816 -74.5091,12.59816 -46.0733,0 -69.8298,-15.47774 -23.7566,-15.47774 -31.3155,-42.83374 -7.1989,-27.35601 -7.1989,-73.06933 l 0,-188.61246 -12.9581,0 q -21.2369,0 -32.3953,-10.07853 -11.1584,-10.07853 -11.1584,-25.55627 0,-15.47774 11.5184,-25.19632 11.8782,-10.07853 34.195,-10.07853 z"
         style="font-style:normal;font-variant:normal;font-weight:normal;font-stretch:normal;font-family:'Arial Rounded MT Bold';-inkscape-font-specification:'Arial Rounded MT Bold, ';text-align:start;text-anchor:start;fill:#ffffff;fill-opacity:1"
         id="path4152" />
    <circle
       style="fill:#ffffff;stroke:none;stroke-width:50;stroke-miterlimit:4;stroke-dasharray:none;stroke-opacity:1"
       id="top_circle"
       cx="500"
       cy="118.743"
       r="60" />
    <circle
       r="60"
       cy="-1064.2698"
       cx="183.0127"
       id="right_circle"
       style="fill:#ffffff;stroke:none;stroke-width:50;stroke-miterlimit:4;stroke-dasharray:none;stroke-opacity:1"
       inkscape:transform-center-x="-330.17829"
       inkscape:transform-center-y="190.6285"
       transform="matrix(-0.5,0.8660254,-0.8660254,-0.5,0,0)" />
    <circle
       style="fill:#ffffff;stroke:none;stroke-width:50;stroke-miterlimit:4;stroke-dasharray:none;stroke-opacity:1"
       id="left_circle"
       cx="-683.01276"
       cy="-198.24432"
       r="60"
       inkscape:transform-center-x="330.17826"
       inkscape:transform-center-y="190.62853"
       transform="matrix(-0.5,-0.8660254,0.8660254,-0.5,0,0)" />
</svg>
